{"title":"Alain Cavalier - Irene (2009) XviD","uid":7833610,"size":1319956721,"categoryP":"video","categoryS":"movies","magnet":"?xt=urn:btih:ee7cafc9a363cc8441470208758619a7d3d45dbc&amp;dn=Alain+Cavalier+-+Irene+%282009%29+XviD&amp;tr=udp%3A%2F%2Ftracker.openbittorrent.com%3A80&amp;tr=udp%3A%2F%2Fopen.demonii.com%3A1337&amp;tr=udp%3A%2F%2Ftracker.coppersurfer.tk%3A6969&amp;tr=udp%3A%2F%2Fexodus.desync.com%3A6969","seeders":0,"leechers":1,"uploader":"rpessoa","files":2,"time":1353138569,"description":"A video diary shot and recorded by the filmmaker, using little more than his imagination and the happenstance and flow of the everyday, finally layering in a lifetime of memories.\n\nGeneral \nComplete name : Irene.avi \nFormat : AVI \nFormat/Info : Audio Video Interleave \nFile size : 1.23 GiB \nDuration : 1h 21mn \nOverall bit rate : 2 162 Kbps \nWriting application : VirtualDubMod 1.5.10.2 (build 2540/release) \nWriting library : VirtualDubMod build 2540/release \n\nVideo \nID : 0 \nFormat : MPEG-4 Visual \nFormat profile : Advanced Simple@L5 \nFormat settings, BVOP : 1 \nFormat settings, QPel : No \nFormat settings, GMC : No warppoints \nFormat settings, Matrix : Default (MPEG) \nCodec ID : XVID \nCodec ID/Hint : XviD \nDuration : 1h 21mn \nBit rate : 1 960 Kbps \nWidth : 704 pixels \nHeight : 400 pixels \nDisplay aspect ratio : 16:9 \nFrame rate : 25.000 fps \nColor space : YUV \nChroma subsampling : 4:2:0 \nBit depth : 8 bits \nScan type : Progressive \nCompression mode : Lossy \nBits/(Pixel*Frame) : 0.278 \nStream size : 1.11 GiB (91%) \nWriting library : XviD 64 \n\nAudio \nID : 1 \nFormat : AC-3 \nFormat/Info : Audio Coding 3 \nMode extension : CM (complete main) \nFormat settings, Endianness : Big \nCodec ID : 2000 \nDuration : 1h 21mn \nBit rate mode : Constant \nBit rate : 192 Kbps \nChannel(s) : 2 channels \nChannel positions : Front: L R \nSampling rate : 48.0 KHz \nBit depth : 16 bits \nCompression mode : Lossy \nStream size : 112 MiB (9%) \nAlignment : Split accross interleaves \nInterleave, duration : 40 ms (1.00 video frame) \nInterleave, preload duration : 500 ms \n\n\n\nMy rip.\n\nSubs: Portuguese.","torrent":{"xt":"urn:btih:ee7cafc9a363cc8441470208758619a7d3d45dbc","amp;dn":"Alain+Cavalier+-+Irene+%282009%29+XviD","amp;tr":["udp%3A%2F%2Ftracker.openbittorrent.com%3A80","udp%3A%2F%2Fopen.demonii.com%3A1337","udp%3A%2F%2Ftracker.coppersurfer.tk%3A6969","udp%3A%2F%2Fexodus.desync.com%3A6969"],"infoHash":"ee7cafc9a363cc8441470208758619a7d3d45dbc","infoHashBuffer":{"type":"Buffer","data":[238,124,175,201,163,99,204,132,65,71,2,8,117,134,25,167,211,212,93,188]},"announce":[],"urlList":[]}}